<svg width="516" height="504" viewBox="0 0 516 504" fill="none" xmlns="http://www.w3.org/2000/svg">
<path d="M341.829 336.935C335.515 336.033 331.006 339.19 328.3 345.954C322.889 359.934 311.163 368.503 297.635 368.052C290.419 368.052 283.655 364.895 279.145 359.934C275.087 355.424 273.283 349.562 273.283 343.249H274.185C275.087 342.347 275.989 341.896 276.89 341.445C286.361 336.033 293.576 330.622 298.537 323.857C303.497 317.093 305.301 310.328 303.497 304.466C301.693 298.603 296.733 293.643 289.517 291.388C286.361 290.486 282.753 289.584 278.694 289.584C266.067 289.584 253.44 289.584 241.264 289.584C238.559 289.584 235.402 289.584 232.696 290.486C224.579 292.29 218.265 297.251 215.56 304.015C214.207 308.074 213.305 314.838 219.618 323.406C226.383 332.426 235.853 338.288 243.068 342.347C244.872 343.249 245.323 343.699 245.323 344.15C245.323 348.66 245.323 352.719 243.068 356.326C239.01 362.189 232.696 366.699 225.03 368.052C217.364 369.404 209.246 368.052 202.933 363.542C197.07 359.483 193.012 353.621 190.306 346.856C188.502 341.896 185.345 338.739 181.287 337.837C176.326 336.935 171.816 338.288 168.66 341.896C165.503 345.503 164.601 350.915 165.954 355.876C168.66 364.444 174.071 372.11 182.64 380.227C199.776 396.462 226.834 399.619 247.127 387.894C250.284 386.09 253.44 383.835 256.597 381.58C257.95 380.679 258.852 379.776 260.205 378.875C271.93 389.698 284.557 395.56 298.537 395.56C312.516 395.56 309.36 394.658 314.771 393.305C333.712 387.443 346.789 375.267 353.554 356.778C354.907 352.268 354.907 347.758 352.652 344.15C350.397 340.994 347.24 338.739 343.182 338.288L341.829 336.935Z" fill="#F1ECE4"/>
<path d="M416.688 207.058C411.277 206.156 405.865 206.156 400.904 206.156C397.748 206.156 395.042 206.156 391.885 206.156C375.2 206.156 357.612 207.058 340.927 210.215C329.653 212.47 321.084 216.979 315.222 224.646C304.85 237.272 304.85 252.605 305.752 267.036C305.752 268.389 307.555 270.193 308.908 270.193C313.418 270.193 317.928 270.193 322.437 270.193C323.79 270.193 325.594 270.193 326.947 270.193H327.398C329.653 245.841 330.103 242.233 334.613 239.076C334.162 250.801 336.868 258.919 343.632 265.683C350.397 271.997 358.514 275.604 367.082 275.604C375.651 275.604 369.788 275.604 371.141 275.604C379.258 274.702 385.572 271.546 390.081 266.134C395.944 258.468 398.199 247.194 396.846 233.214H400.002C403.159 233.214 405.865 232.763 409.022 232.312C410.375 232.312 411.728 232.312 413.08 232.312H413.531C420.747 232.312 425.256 227.802 426.609 220.136C427.511 213.822 423.452 208.862 416.688 207.509V207.058Z" fill="#F1ECE4"/>
<path d="M183.992 239.076C189.855 246.292 190.306 254.409 190.757 262.977C190.757 265.232 190.757 267.487 190.757 269.742C190.757 270.193 191.208 270.193 191.208 270.193C193.011 270.193 194.815 270.193 196.168 270.193C200.227 270.193 203.835 270.193 207.893 270.193C209.697 270.193 211.05 270.193 211.952 268.84C212.854 267.938 213.305 266.585 213.305 264.781C213.305 262.977 213.305 260.723 213.305 258.919C213.305 255.311 213.305 251.703 212.854 248.547C211.501 235.92 206.54 226.45 197.521 219.234C187.149 211.117 175.424 209.313 162.797 207.96C152.876 207.058 142.955 206.607 131.23 206.156C122.661 206.156 114.093 206.156 105.976 206.156C97.4077 206.156 92.4471 211.117 92.4471 219.234C92.4471 222.391 94.2509 225.999 96.5057 228.704C99.2115 231.41 102.819 232.312 106.427 232.312C110.035 232.312 114.093 232.312 117.701 232.312C119.054 232.312 120.858 232.312 122.211 232.312C119.956 244.037 121.309 254.409 126.72 262.076C131.681 268.84 138.896 273.35 147.915 274.702C149.268 274.702 151.072 274.702 152.425 274.702C159.64 274.702 166.856 271.997 172.718 267.036C180.836 260.272 184.443 251.252 183.992 237.724V239.076Z" fill="#F1ECE4"/>
<path d="M514.096 230.057C511.841 212.47 508.684 191.725 502.371 171.432C501.018 166.922 499.665 162.413 500.567 157.903C501.018 151.59 501.469 145.276 501.469 139.414C501.469 124.081 501.469 108.748 501.469 93.8667C501.469 72.2205 501.018 49.6726 496.959 28.0264C495.607 20.811 494.254 13.1448 489.293 6.38033C485.685 1.41976 481.176 -0.384196 476.666 0.0667653C472.157 0.968688 466.294 1.87061 460.882 4.57638C439.236 14.9485 420.296 29.8304 404.061 43.3592C395.042 50.5746 386.474 58.6919 377.906 65.9073C372.945 69.9659 368.435 74.4755 363.475 78.5341C362.573 79.4361 361.22 79.887 360.318 79.887C290.419 79.887 222.775 79.887 158.287 79.887C156.935 79.887 155.131 79.4361 154.229 78.5341C148.366 73.5736 142.504 68.6129 137.543 64.1033C114.093 42.9081 93.349 27.1245 73.0557 14.4976C65.3894 9.53701 56.3702 4.12536 46.449 1.41959C36.0769 -1.28617 28.8615 1.41965 24.3519 11.3408C23.45 13.1446 22.5481 14.9485 22.5481 16.7524C22.0971 19.4582 21.6461 22.1639 21.1952 24.8696C19.8423 32.536 18.4894 40.2024 17.5875 48.3197C16.2346 63.2014 15.7836 78.083 15.7836 89.3571C15.7836 102.886 15.7836 116.415 15.7836 129.493C15.7836 134.453 15.7836 138.963 15.7836 143.924C15.7836 146.178 15.7836 148.433 15.7836 150.688C15.7836 158.354 16.2346 166.021 13.9798 174.138C6.31345 199.392 2.25481 226.9 0.901926 255.762C3.42712e-06 272.898 0 290.035 0 307.172C0 309.877 0 312.583 0 315.74C0 337.386 0.901916 355.424 2.70576 372.11C4.96057 393.305 9.47019 413.598 15.7836 432.99C18.9404 442.46 23.45 453.734 31.5673 463.204C40.5865 474.027 52.7625 481.242 71.2519 486.203C86.1336 490.262 101.466 493.418 119.054 495.222C123.112 495.222 127.171 496.124 131.23 496.575C149.268 498.379 168.209 500.634 186.698 501.536C203.835 502.438 220.52 502.889 237.206 503.34C244.421 503.34 250.735 503.34 257.499 503.791C264.263 503.791 271.028 503.791 277.341 503.34C292.223 503.34 306.654 502.438 321.084 501.987C332.809 501.987 343.182 501.085 353.554 500.183C362.573 499.281 372.043 498.379 381.062 497.477C385.572 497.026 390.082 496.575 394.591 496.124C412.63 494.32 428.864 491.164 444.197 487.105C469.902 480.341 487.038 465.91 496.508 443.362C505.528 421.716 511.39 397.815 513.645 370.306C514.998 355.875 515.9 339.641 515.9 320.7C515.9 318.446 515.9 315.74 515.9 313.485C515.9 286.878 516.802 258.919 513.194 231.861L514.096 230.057ZM490.195 299.505C490.195 299.505 490.195 299.956 490.195 300.407C488.842 300.407 487.038 300.407 485.685 300.407C482.078 300.407 478.47 300.407 474.411 300.858C469 300.858 464.039 300.858 458.628 301.309C449.157 301.309 439.687 301.76 430.217 302.211C427.06 302.211 423.904 303.113 421.649 304.015C416.237 306.721 413.532 312.583 414.884 318.897C416.688 325.21 421.649 329.269 428.413 329.269C440.138 329.269 451.863 328.367 463.137 328.367C469.902 328.367 476.215 328.367 482.98 327.916C484.333 327.916 486.136 327.916 487.489 327.916C488.391 327.916 488.842 327.916 489.744 327.916L488.391 358.581L480.725 357.228C474.862 355.875 469 354.973 463.137 353.621C459.079 352.719 455.471 351.817 451.412 351.366C443.746 349.562 435.629 348.209 427.962 346.405C420.296 345.052 413.532 348.209 411.277 354.523C409.924 358.13 410.375 362.189 412.179 365.797C413.982 369.404 417.59 371.659 421.649 372.561C429.315 374.365 437.432 375.718 445.099 377.521C451.863 378.874 459.079 380.678 466.294 382.031C470.353 382.933 474.862 383.835 478.921 385.188C480.725 385.188 482.529 386.09 484.332 386.541C481.627 401.873 478.019 417.657 471.255 432.99C465.843 445.166 455.922 452.832 441.491 457.342C427.511 461.4 413.081 464.557 397.297 466.361C378.808 468.616 361.22 470.419 343.182 471.321C321.535 472.674 298.987 473.125 279.596 474.027C265.616 474.027 252.989 474.027 240.362 474.027H236.755C216.01 473.125 194.815 472.674 173.62 470.871C153.327 469.518 132.583 467.263 111.387 464.106C98.7605 462.302 86.1336 459.146 74.4086 455.989C62.2327 452.832 53.2134 444.715 47.3509 432.088C41.4884 419.912 38.7827 406.834 36.0769 393.305C35.6259 391.05 35.175 388.345 34.724 386.09C37.4298 385.639 40.5865 384.737 43.2923 384.286C50.0567 382.933 56.8211 381.58 63.1346 380.227C65.3894 379.776 67.6442 379.325 70.35 378.874C79.3692 377.07 88.3884 375.267 97.4076 373.012C102.819 371.659 106.878 368.502 108.231 363.542C109.584 359.032 109.133 354.522 105.976 350.915C102.368 346.405 97.4076 344.601 90.6432 345.954C83.4278 347.307 76.6634 348.66 69.4481 350.013C65.8404 350.915 62.2327 351.366 58.625 352.268C52.3115 353.621 45.5471 354.973 39.2336 356.326L30.6654 358.13L28.8615 327.465C28.8615 327.465 29.3125 327.465 29.7634 327.465C30.6654 327.465 31.1163 327.465 32.0182 327.465C40.5865 327.465 49.1548 327.916 57.723 328.367C67.6442 328.367 77.5654 328.818 87.4865 329.269C90.6432 329.269 94.7019 329.269 98.3096 327.465C103.27 324.308 105.525 318.897 104.623 313.034C103.721 307.623 98.7605 303.113 93.349 302.662C87.0355 302.211 80.7221 301.76 74.8596 301.76H73.5067C64.4875 301.76 55.4682 301.309 46.449 300.858C41.4884 300.858 36.9788 300.858 32.0182 300.407C31.1163 300.407 30.6654 300.407 29.7634 300.407C29.7634 300.407 29.7634 300.407 29.3125 300.407C29.3125 297.701 29.3125 294.995 29.3125 292.29C29.3125 285.976 29.3125 279.663 29.3125 273.35C30.2144 257.566 31.1163 244.488 32.0182 232.763C33.8221 216.528 36.9788 198.941 42.3904 180C42.3904 180 42.3904 179.099 42.3904 178.648C42.3904 177.295 42.8413 176.393 43.2923 175.04C45.5471 168.726 45.5471 162.413 45.0961 156.1C45.0961 155.649 45.0961 154.747 45.0961 154.296C43.7433 129.042 42.8413 99.7293 44.1942 70.8678C44.6452 61.8485 45.5471 52.3784 46.9 43.3592C46.9 39.3006 47.8019 35.2419 48.2529 31.1832C48.2529 31.1832 48.2529 30.2813 48.2529 29.8304C48.2529 29.8304 48.7038 29.8303 49.1548 30.2812C50.0567 30.7322 50.9586 31.1833 51.8606 32.0852C73.5067 45.614 94.2509 61.3977 114.544 79.4361C121.309 85.7496 130.328 93.8669 139.347 101.984C142.955 105.141 147.013 106.494 151.523 106.494C223.226 106.494 294.929 106.494 366.632 106.494C371.592 106.494 375.651 105.141 378.808 101.984C381.513 99.2784 384.219 97.0236 387.376 94.3178C396.395 86.2005 405.865 77.6322 415.335 69.5149C431.57 55.5351 449.608 42.4572 468.549 30.2812C468.549 30.2812 469.451 30.2812 469.902 29.3793C469.902 29.3793 469.902 29.3793 470.353 29.3793C470.353 32.9869 471.255 36.1436 471.706 39.7513C472.608 47.8686 473.96 55.986 473.96 64.1033C474.862 81.6908 475.313 99.2783 475.313 117.317C475.313 126.787 474.862 136.257 474.411 145.276C474.411 151.59 473.96 158.354 473.509 165.119C473.509 168.276 474.411 171.883 475.313 174.589C481.176 193.98 484.783 214.273 487.489 235.469C489.744 256.213 490.646 277.408 490.646 299.054L490.195 299.505Z" fill="#F1ECE4"/>
</svg>
