<svg width="1681" height="985" viewBox="0 0 1681 985" fill="none" xmlns="http://www.w3.org/2000/svg">
<path d="M238.649 214.332C235.501 232.317 232.353 250.528 229.206 268.514C222.011 311.68 215.042 354.621 208.073 397.787C201.553 437.581 195.258 477.375 188.963 517.169C182.668 556.962 176.372 596.756 169.853 636.55C163.558 676.119 156.813 715.463 150.518 755.031C145.122 788.305 139.502 821.354 135.23 854.853C133.207 870.141 132.532 886.104 135.005 901.167C139.277 927.696 152.541 938.038 184.916 945.457V974.009H0.560547V946.356C7.53007 943.434 15.1744 941.41 21.6943 937.363C39.0057 926.122 48.6727 909.035 53.394 889.925C59.6891 863.621 63.7361 837.092 68.2326 810.563C77.9 754.132 87.5675 697.477 97.0101 641.046C106.453 585.74 115.67 530.433 124.888 475.127C134.555 418.696 144.223 362.265 153.665 305.61C162.658 252.102 170.977 198.369 179.97 144.861C184.466 117.657 189.187 90.4538 193.909 63.2502C196.382 48.4119 194.134 34.248 188.064 20.5338C185.59 15.138 183.117 9.5175 180.195 3.44727H349.711C349.711 4.12174 350.161 5.02103 349.936 5.6955C337.346 30.4261 342.741 56.0558 347.013 81.4609C353.533 121.255 360.053 161.048 366.573 200.842C373.318 242.659 380.287 284.701 388.156 326.743C391.304 313.029 394.452 299.09 397.374 285.376C413.112 212.083 428.624 138.566 444.811 65.2737C447.734 52.2339 443.463 40.7679 440.99 28.8523C439.416 21.8828 437.393 14.9132 435.594 7.04438H593.87C592.521 11.0912 591.396 14.6884 589.822 18.2856C581.504 36.7211 581.279 55.6062 584.427 75.1658C592.071 121.03 598.816 166.894 606.235 212.758C613.204 256.823 620.399 300.664 627.368 344.729C633.888 385.422 639.958 426.34 646.478 467.033C654.122 515.145 661.99 563.482 669.634 611.594C676.604 655.885 683.349 700.399 690.319 744.69C694.365 770.769 698.637 796.624 704.707 822.704C713.25 776.84 721.794 730.751 730.562 684.887C740.004 635.201 749.447 585.515 758.665 535.604C768.782 482.096 778.899 428.363 788.791 374.855C798.908 319.998 809.025 265.142 819.367 210.51C829.709 155.428 840.726 100.346 850.393 45.2644C851.742 37.8452 848.369 29.3019 846.346 21.4331C844.772 16.0374 841.85 11.0911 838.927 5.02092H991.357C991.357 5.47057 992.032 6.14506 991.807 6.59471C977.193 28.8522 982.364 52.2339 986.86 76.0652C995.853 121.929 1003.72 167.793 1012.27 213.657C1022.83 270.537 1034.07 327.418 1044.64 384.298C1053.63 432.185 1061.95 480.298 1070.72 528.41C1079.49 577.421 1087.81 626.433 1097.02 675.219C1106.92 728.952 1116.81 782.46 1127.83 835.968C1132.55 858.45 1138.84 880.708 1146.26 902.291C1154.58 926.572 1171.89 941.635 1198.64 944.108C1200.67 944.108 1203.82 947.705 1204.04 949.953C1204.71 957.373 1204.27 965.017 1204.27 973.56H950.664V945.232C958.083 944.333 965.278 943.883 972.472 942.309C996.528 936.914 1009.12 920.277 1006.2 895.996C1003.72 875.762 1000.35 855.752 996.977 835.743C988.884 787.631 981.015 739.519 972.247 691.407C965.053 652.512 956.734 613.618 948.64 574.049C928.631 581.693 913.343 594.283 899.179 608.447C837.803 669.599 797.559 743.341 773.278 825.851C765.634 851.93 758.215 878.46 758.44 906.113C758.44 927.696 770.805 941.185 792.388 943.883C795.311 944.333 798.459 945.007 801.831 945.457V974.459H531.368V945.232C537.663 944.783 543.959 944.558 550.029 943.434C572.287 939.612 586.225 919.153 582.403 895.097C571.612 826.076 560.821 757.28 550.029 688.259C542.16 638.573 534.067 588.887 526.648 539.201C518.779 487.492 511.809 435.782 504.165 384.298C497.87 342.93 491.125 301.563 484.83 260.195C481.908 240.411 479.434 220.626 475.162 200.617C471.565 218.378 467.743 235.915 464.146 253.676C452.905 308.757 441.439 364.064 430.198 419.146C425.701 441.403 419.631 463.436 417.158 485.918C415.36 502.555 417.159 519.866 419.632 536.503C426.601 588.213 434.92 639.697 442.339 691.407C448.859 736.371 454.704 781.336 453.13 826.75C451.781 861.823 447.509 896.221 434.919 929.27C416.484 977.831 371.295 987.274 337.571 978.281C322.058 974.234 310.816 964.567 302.048 951.302C287.66 929.27 281.14 904.539 277.543 878.684C269.899 824.052 275.744 769.87 282.938 715.912C289.009 668.25 295.304 620.812 301.149 573.15C305.196 541.225 299.576 510.199 293.505 479.173C282.264 420.045 270.574 360.691 259.108 301.563C253.487 272.561 247.867 243.334 242.246 214.332H239.323H238.649ZM803.629 620.587C829.709 593.384 855.789 565.281 882.768 538.302C895.358 525.712 910.421 515.145 923.011 502.555C927.507 498.059 931.554 489.515 930.88 483.445C928.407 461.862 923.911 440.504 920.089 418.921C909.297 357.544 898.505 295.942 887.489 234.566C885.466 223.774 882.768 212.983 880.519 202.191H877.596C852.865 342.256 828.135 482.096 803.629 620.363V620.587ZM380.287 826.076C379.613 826.076 378.939 826.076 378.264 825.851C377.365 806.291 377.364 786.732 375.116 767.622C372.643 746.713 368.372 725.805 364.325 705.121C363.65 701.973 359.828 699.5 357.58 696.577C355.107 699.275 352.634 702.198 350.385 705.121C349.936 705.795 349.936 706.919 349.711 707.819C339.145 753.233 336.896 799.322 339.369 845.411C340.044 860.024 343.641 874.863 347.013 889.026C348.587 895.996 351.06 906.338 359.828 905.214C364.325 904.764 370.17 895.097 371.295 889.026C375.117 868.343 377.365 847.209 380.062 826.301L380.287 826.076Z" fill="#F8F6C3"/>
<path d="M1611.2 11.9906C1614.57 37.1708 1617.72 61.9014 1621.54 86.8568C1626.26 117.208 1631.88 147.109 1636.6 177.461C1637.05 180.833 1635.7 186.454 1633.23 188.027C1620.41 195.222 1607.37 202.641 1593.66 207.362C1589.16 208.936 1580.17 204.664 1576.57 200.393C1563.98 185.554 1553.42 169.142 1541.27 153.854C1527.11 136.093 1513.4 117.433 1496.98 101.695C1448.87 54.707 1390.19 56.0559 1342.98 103.943C1319.37 127.775 1303.64 157.002 1290.6 187.578C1271.71 231.193 1261.82 277.282 1253.73 324.045C1242.48 389.469 1241.14 455.567 1243.16 521.665C1245.86 609.796 1257.1 696.578 1290.6 779.088C1301.61 806.067 1313.3 833.045 1332.19 855.528C1352.65 880.258 1377.83 898.919 1410.2 904.09C1435.38 908.136 1460.79 906.563 1484.39 895.771C1508.68 884.53 1520.59 863.846 1522.84 837.991C1525.54 807.64 1527.56 777.289 1528.24 746.938C1529.13 701.299 1529.13 655.435 1528.68 609.796C1528.46 585.74 1510.47 573.599 1486.87 579.22C1460.56 585.74 1440.78 602.152 1424.14 622.161C1413.57 634.751 1404.36 648.465 1394.47 661.28C1387.72 670.048 1384.57 669.374 1380.53 659.032C1369.06 628.906 1372.21 599.229 1384.35 570.452C1403.01 526.161 1434.26 495.136 1481.92 484.12C1496.76 480.747 1512.72 480.972 1528.24 481.197C1577.92 481.422 1627.61 482.546 1677.29 483.22C1678.64 483.22 1680.22 483.22 1680.89 483.22C1675.04 501.206 1668.3 518.742 1663.8 536.728C1661.11 547.07 1660.66 558.536 1660.66 569.328C1661.11 659.032 1661.78 748.512 1662.23 838.216C1662.23 848.558 1662.23 859.125 1659.98 869.017C1658.18 876.661 1654.14 884.53 1648.74 890.151C1600.63 940.736 1541.5 971.761 1472.7 981.654C1376.48 995.368 1295.32 965.017 1230.57 892.174C1177.96 833.27 1147.83 763.125 1128.05 687.585C1108.27 611.594 1101.52 534.48 1104.22 456.241C1106.92 378.902 1119.73 303.586 1146.48 230.968C1165.59 179.034 1190.55 130.248 1227.65 88.6553C1263.84 47.9623 1305.66 15.363 1360.74 4.5715C1404.13 -3.97179 1445.72 2.09833 1485.97 20.7587C1502.16 28.1778 1519.02 33.7985 1535.88 40.0936C1561.51 49.761 1582.87 41.2177 1601.3 23.2318C1604.9 19.6346 1608.27 15.8126 1611.87 12.2154L1611.2 11.9906Z" fill="#F8F6C3"/>
</svg>
