<svg width="1681" height="985" viewBox="0 0 1681 985" fill="none" xmlns="http://www.w3.org/2000/svg">
<path d="M238.648 214.447C235.501 232.433 232.353 250.643 229.205 268.629C222.011 311.795 215.042 354.736 208.072 397.903C201.552 437.696 195.257 477.49 188.962 517.284C182.667 557.078 176.372 596.871 169.852 636.665C163.557 676.234 156.812 715.578 150.517 755.147C145.121 788.421 139.501 821.47 135.23 854.968C133.206 870.256 132.531 886.219 135.004 901.282C139.276 927.811 152.541 938.153 184.916 945.572V974.125H0.560547V946.471C7.53007 943.549 15.1738 941.525 21.6937 937.479C39.0051 926.237 48.6727 909.151 53.394 890.041C59.6891 863.736 63.735 837.207 68.2315 810.678C77.8989 754.247 87.567 697.592 97.0095 641.161C106.452 585.855 115.67 530.548 124.887 475.242C134.555 418.811 144.222 362.38 153.664 305.725C162.657 252.217 170.976 198.484 179.969 144.976C184.466 117.773 189.187 90.5691 193.909 63.3655C196.382 48.5272 194.133 34.3633 188.063 20.6491C185.59 15.2533 183.117 9.63273 180.194 3.5625H349.711C349.711 4.23697 350.161 5.13626 349.936 5.81073C337.346 30.5413 342.741 56.1711 347.012 81.5762C353.532 121.37 360.053 161.164 366.572 200.957C373.317 242.775 380.287 284.816 388.156 326.858C391.303 313.144 394.451 299.205 397.374 285.491C413.111 212.199 428.623 138.681 444.811 65.3889C447.733 52.3492 443.462 40.8832 440.989 28.9675C439.415 21.998 437.392 15.0285 435.594 7.15967H593.869C592.52 11.2065 591.395 14.8037 589.822 18.4008C581.503 36.8363 581.279 55.7215 584.426 75.2811C592.07 121.145 598.815 167.009 606.234 212.873C613.204 256.938 620.398 300.779 627.368 344.844C633.887 385.537 639.958 426.455 646.478 467.148C654.122 515.26 661.99 563.597 669.634 611.71C676.603 656 683.349 700.515 690.318 744.805C694.365 770.884 698.636 796.739 704.707 822.819C713.25 776.955 721.793 730.866 730.561 685.002C740.004 635.316 749.446 585.63 758.664 535.719C768.781 482.211 778.898 428.479 788.79 374.971C798.907 320.114 809.025 265.257 819.366 210.625C829.708 155.543 840.725 100.461 850.393 45.3796C851.742 37.9605 848.369 29.4172 846.345 21.5484C844.771 16.1526 841.849 11.2065 838.927 5.13626H991.356C991.356 5.5859 992.031 6.26038 991.806 6.71003C977.193 28.9675 982.363 52.3492 986.86 76.1804C995.853 122.044 1003.72 167.908 1012.27 213.772C1022.83 270.653 1034.07 327.533 1044.64 384.413C1053.63 432.301 1061.95 480.413 1070.72 528.525C1079.49 577.536 1087.81 626.548 1097.02 675.335C1106.92 729.067 1116.81 782.575 1127.82 836.083C1132.55 858.565 1138.84 880.823 1146.26 902.406C1154.58 926.687 1171.89 941.75 1198.64 944.223C1200.67 944.223 1203.81 947.82 1204.04 950.069C1204.71 957.488 1204.26 965.132 1204.26 973.675H950.663V945.347C958.082 944.448 965.277 943.998 972.471 942.425C996.527 937.029 1009.12 920.392 1006.19 896.111C1003.72 875.877 1000.35 855.868 996.977 835.858C988.883 787.746 981.014 739.634 972.246 691.522C965.052 652.627 956.734 613.733 948.64 574.164C928.631 581.808 913.343 594.398 899.179 608.562C837.802 669.714 797.559 743.456 773.278 825.966C765.634 852.046 758.214 878.575 758.439 906.228C758.439 927.811 770.805 941.3 792.388 943.998C795.31 944.448 798.458 945.122 801.831 945.572V974.574H531.368V945.347C537.663 944.898 543.958 944.673 550.029 943.549C572.286 939.727 586.225 919.268 582.403 895.212C571.611 826.191 560.82 757.395 550.029 688.374C542.16 638.688 534.066 589.002 526.647 539.316C518.778 487.607 511.809 435.898 504.165 384.413C497.87 343.046 491.125 301.678 484.83 260.311C481.907 240.526 479.433 220.742 475.162 200.733C471.565 218.494 467.743 236.03 464.146 253.791C452.904 308.873 441.438 364.179 430.197 419.261C425.701 441.518 419.631 463.551 417.158 486.033C415.359 502.67 417.158 519.982 419.631 536.619C426.601 588.328 434.919 639.812 442.338 691.522C448.858 736.487 454.703 781.451 453.129 826.865C451.781 861.938 447.509 896.336 434.919 929.385C416.483 977.947 371.294 987.389 337.57 978.396C322.058 974.349 310.816 964.682 302.048 951.418C287.659 929.385 281.139 904.654 277.542 878.8C269.898 824.168 275.743 769.985 282.938 716.028C289.008 668.365 295.303 620.927 301.149 573.265C305.195 541.34 299.575 510.314 293.505 479.289C282.264 420.16 270.573 360.807 259.107 301.678C253.487 272.676 247.866 243.449 242.246 214.447H239.322H238.648ZM803.629 620.478C829.708 593.274 855.788 565.171 882.767 538.192C895.357 525.602 910.42 515.036 923.01 502.445C927.507 497.949 931.554 489.406 930.879 483.335C928.406 461.752 923.91 440.394 920.088 418.811C909.296 357.434 898.505 295.833 887.489 234.456C885.465 223.665 882.767 212.873 880.519 202.081H877.595C852.865 342.146 828.135 481.986 803.629 620.253V620.478ZM380.287 826.191C379.612 826.191 378.938 826.191 378.264 825.966C377.364 806.406 377.364 786.847 375.115 767.737C372.642 746.828 368.371 725.92 364.324 705.236C363.65 702.089 359.828 699.615 357.58 696.693C355.107 699.391 352.633 702.313 350.385 705.236C349.935 705.911 349.936 707.035 349.711 707.934C339.144 753.348 336.896 799.437 339.369 845.526C340.043 860.139 343.64 874.978 347.012 889.141C348.586 896.111 351.06 906.453 359.828 905.329C364.324 904.879 370.17 895.212 371.294 889.141C375.116 868.458 377.364 847.324 380.062 826.416L380.287 826.191Z" fill="#432818"/>
<path d="M1611.2 11.8813C1614.57 37.0615 1617.72 61.792 1621.54 86.7474C1626.26 117.099 1631.88 147 1636.6 177.351C1637.05 180.724 1635.7 186.344 1633.23 187.918C1620.41 195.112 1607.37 202.531 1593.66 207.253C1589.16 208.827 1580.17 204.555 1576.57 200.283C1563.98 185.445 1553.42 169.033 1541.27 153.745C1527.11 135.984 1513.4 117.323 1496.98 101.586C1448.87 54.5977 1390.19 55.9467 1342.98 103.834C1319.37 127.665 1303.64 156.892 1290.6 187.468C1271.71 231.084 1261.82 277.173 1253.73 323.936C1242.48 389.36 1241.14 455.458 1243.16 521.556C1245.86 609.686 1257.1 696.468 1290.6 778.978C1301.61 805.957 1313.3 832.936 1332.19 855.418C1352.65 880.149 1377.83 898.809 1410.2 903.98C1435.38 908.027 1460.79 906.453 1484.39 895.662C1508.68 884.421 1520.59 863.737 1522.84 837.882C1525.54 807.531 1527.56 777.18 1528.24 746.829C1529.13 701.19 1529.13 655.326 1528.68 609.687C1528.46 585.63 1510.47 573.49 1486.87 579.111C1460.56 585.63 1440.78 602.043 1424.14 622.052C1413.57 634.642 1404.36 648.356 1394.47 661.171C1387.72 669.939 1384.57 669.265 1380.53 658.923C1369.06 628.797 1372.21 599.12 1384.35 570.342C1403.01 526.052 1434.26 495.027 1481.92 484.01C1496.76 480.638 1512.72 480.863 1528.24 481.088C1577.92 481.312 1627.61 482.436 1677.29 483.111C1678.64 483.111 1680.22 483.111 1680.89 483.111C1675.04 501.097 1668.3 518.633 1663.8 536.619C1661.11 546.961 1660.66 558.427 1660.66 569.218C1661.11 658.923 1661.78 748.403 1662.23 838.107C1662.23 848.449 1662.23 859.016 1659.98 868.908C1658.18 876.552 1654.14 884.421 1648.74 890.041C1600.63 940.626 1541.5 971.652 1472.7 981.544C1376.48 995.258 1295.32 964.907 1230.57 892.065C1177.96 833.161 1147.83 763.016 1128.05 687.475C1108.27 611.485 1101.52 534.371 1104.22 456.132C1106.92 378.793 1119.73 303.477 1146.48 230.859C1165.59 178.925 1190.55 130.138 1227.65 88.546C1263.84 47.853 1305.66 15.2536 1360.74 4.4621C1404.13 -4.08118 1445.72 1.98904 1485.97 20.6494C1502.16 28.0685 1519.02 33.6891 1535.88 39.9842C1561.51 49.6516 1582.87 41.1083 1601.3 23.1224C1604.9 19.5253 1608.27 15.7033 1611.87 12.1061L1611.2 11.8813Z" fill="#432818"/>
</svg>
